<svg xmlns="http://www.w3.org/2000/svg" xmlns:xlink="http://www.w3.org/1999/xlink" version="1.1" id="Layer_1" x="0px" y="0px" width="68.75px" height="100px" viewBox="0 0 68.75 100" enable-background="new 0 0 68.75 100" xml:space="preserve">
<path fill="#000000" d="M42.476,0H0v100h68.75V24.085L42.476,0z M43.75,6.82l17.562,16.097H43.75V6.82z M4.167,95.833V4.167h35.417  v22.917h25v68.749H4.167z"/>
<path fill="#000000" d="M16.668,52.836c-0.12,0-0.241-0.01-0.363-0.032c-1.133-0.199-1.89-1.279-1.69-2.413  c2.479-14.08,11.056-17.686,15.948-18.581c8.183-1.493,16.499,2.263,19.144,6.71c0.588,0.989,0.264,2.267-0.726,2.854  c-0.99,0.59-2.268,0.261-2.855-0.727c-1.629-2.74-8.212-5.942-14.812-4.74c-4.675,0.856-10.656,4.191-12.595,15.208  C18.54,52.124,17.661,52.836,16.668,52.836z"/>
<path fill="#000000" d="M33.896,78.525c-0.883,0-1.781-0.066-2.695-0.205c-8.193-1.23-15.325-7.886-16.59-15.479  c-0.189-1.135,0.578-2.207,1.712-2.396c1.138-0.205,2.207,0.58,2.397,1.713c0.965,5.792,6.72,11.082,13.1,12.042  c3.468,0.515,9.939,0.118,14.231-8.465c2.072-4.145-0.576-14.483-6.122-19.379c-3.114-2.749-6.349-3.048-9.609-0.873  c-2.54,1.693-5.188,6.55-5.08,11.076c0.084,3.583,1.766,6.382,4.997,8.321c1.097,0.657,4.222,1.076,6.041-0.206  c1.423-1.003,1.847-3.001,1.261-5.933c-0.462-2.305-2.57-6.4-3.579-6.543c0.005,0.002-0.363,0.116-0.979,1.04  c-0.496,0.742-0.977,3.516-0.327,4.73c0.121,0.228,0.227,0.364,0.677,0.364c1.15,0,2.083,0.932,2.083,2.083S34.483,62.5,33.333,62.5  c-1.92,0-3.465-0.909-4.35-2.563c-1.487-2.779-0.678-7.191,0.533-9.009c1.878-2.815,3.893-3.088,5.254-2.815  c4.713,0.932,6.838,9.725,6.855,9.812c1.171,5.851-0.956,8.752-2.946,10.156c-3.359,2.368-8.306,1.739-10.584,0.372  c-5.65-3.39-6.936-8.284-7.019-11.794c-0.153-6.406,3.458-12.325,6.935-14.643c4.814-3.21,10.166-2.767,14.678,1.215  c6.624,5.848,10.202,18.146,7.091,24.367C46.252,74.652,40.558,78.525,33.896,78.525z"/>
<path fill="#000000" d="M33.258,87.354c-2.129,0-4.036-0.297-5.639-0.698c-5.237-1.308-10.097-4.532-12.686-8.416  c-0.638-0.959-0.379-2.251,0.578-2.89c0.955-0.639,2.249-0.378,2.889,0.578c3.396,5.095,14.59,11.381,26.277,3.589  c0.957-0.637,2.25-0.381,2.889,0.578c0.638,0.958,0.38,2.25-0.577,2.889C41.988,86.317,37.234,87.354,33.258,87.354z"/>
</svg>